<svg width="16" height="16" viewBox="0 0 16 16" fill="none" xmlns="http://www.w3.org/2000/svg">
<path d="M7.99996 3.33337C5.05929 3.33337 2.66663 5.72604 2.66663 8.66671C2.66663 11.6074 5.05929 14 7.99996 14C10.9406 14 13.3333 11.6074 13.3333 8.66671C13.3333 5.72604 10.9406 3.33337 7.99996 3.33337ZM7.99996 12.6667C5.79396 12.6667 3.99996 10.8727 3.99996 8.66671C3.99996 6.46071 5.79396 4.66671 7.99996 4.66671C10.206 4.66671 12 6.46071 12 8.66671C12 10.8727 10.206 12.6667 7.99996 12.6667Z" fill="#8C8C8C"/>
<path d="M7.33329 6.00004H8.66663V9.33337H7.33329V6.00004ZM5.99996 1.33337H9.99996V2.66671H5.99996V1.33337Z" fill="#8C8C8C"/>
<path d="M12.8618 5.13801L11.5287 3.80486L12.4715 2.86207L13.8046 4.19522L12.8618 5.13801Z" fill="#8C8C8C"/>
</svg>
